<?xml version="1.0" standalone="no"?>
<!DOCTYPE svg PUBLIC "-//W3C//DTD SVG 20010904//EN"
 "http://www.w3.org/TR/2001/REC-SVG-20010904/DTD/svg10.dtd">
<svg version="1.0" xmlns="http://www.w3.org/2000/svg"
 width="900.000000pt" height="900.000000pt" viewBox="0 0 900.000000 900.000000"
 preserveAspectRatio="xMidYMid meet">
<metadata>
Created by potrace 1.14, written by Peter Selinger 2001-2017
</metadata>
<g transform="translate(0.000000,900.000000) scale(0.100000,-0.100000)"
fill="#000000" stroke="none">
<path d="M2705 7743 c-11 -2 -56 -11 -100 -19 -86 -16 -232 -60 -252 -77 -7
-5 -13 -7 -13 -4 0 3 -37 -12 -82 -35 -401 -196 -682 -571 -762 -1014 -15 -81
-19 -181 -19 -506 -1 -318 -2 -358 -16 -359 -9 -1 -128 -2 -266 -3 l-249 -1 3
-47 3 -48 -445 0 c-451 0 -463 -1 -451 -35 3 -6 160 -10 448 -9 l445 1 0 -66
c0 -37 -3 -71 -7 -77 -5 -7 -138 -11 -422 -12 -516 0 -469 2 -466 -19 3 -17
32 -18 437 -20 239 -1 440 -2 447 -3 10 0 12 -19 10 -72 l-3 -73 -438 -1
c-240 0 -440 -4 -444 -8 -4 -4 -8 -13 -9 -21 -2 -13 54 -15 414 -15 230 1 422
0 427 -1 6 -1 21 0 33 1 20 1 23 -3 22 -27 -5 -68 -28 -63 263 -63 l264 0 -1
-182 c-1 -101 0 -189 2 -195 3 -10 79 -13 333 -13 l329 0 -5 -27 c-3 -16 -7
-38 -9 -50 -3 -11 -7 -43 -11 -70 -4 -26 -9 -59 -11 -73 -24 -150 -23 -532 1
-695 3 -16 7 -47 10 -67 12 -88 18 -119 42 -228 14 -63 45 -176 69 -250 24
-74 41 -137 38 -139 -3 -3 -251 -6 -550 -6 l-546 0 -184 -189 c-204 -210 -188
-182 -184 -323 1 -54 -5 -62 -38 -43 -19 11 -265 127 -379 179 l-71 33 15 35
c8 19 13 36 11 38 -4 4 -137 65 -165 76 -15 6 -23 5 -23 -2 0 -6 -32 -83 -71
-171 -39 -87 -69 -163 -67 -169 2 -6 42 -27 89 -49 l86 -38 17 35 c9 19 20 32
24 30 4 -3 70 -35 147 -72 77 -37 204 -98 282 -136 l142 -69 0 -119 1 -120
-73 33 c-39 19 -115 54 -167 78 -52 25 -132 62 -178 83 -87 41 -88 42 -67 97
4 10 -17 23 -68 45 -41 17 -79 28 -84 24 -10 -7 -133 -310 -133 -327 0 -10
123 -64 146 -64 6 0 16 11 22 25 l12 26 37 -20 c21 -10 154 -75 296 -145 l257
-126 -2 -45 c0 -25 2 -48 6 -53 4 -4 611 -7 1349 -7 l1342 -1 70 -40 c97 -55
230 -119 344 -164 88 -35 298 -104 346 -114 263 -57 284 -60 390 -71 22 -2 67
-7 100 -11 86 -10 332 -11 433 -2 218 18 364 42 541 90 266 70 519 177 759
321 103 61 308 210 392 284 128 111 333 328 395 416 13 19 16 17 71 -43 141
-152 363 -270 555 -296 133 -18 306 -7 414 27 330 102 567 342 661 674 38 133
40 342 5 479 -13 50 -27 97 -30 105 -77 166 -111 220 -199 318 l-53 59 -4 234
c-2 129 -6 258 -9 285 -3 28 -8 70 -10 95 -21 192 -77 482 -126 645 -12 39
-23 77 -25 85 -10 43 -90 261 -116 319 -16 36 -29 67 -29 69 5 8 -137 289
-205 406 -50 86 -155 252 -178 281 -4 6 -26 35 -48 65 -22 30 -50 68 -62 84
-32 43 -187 227 -211 252 -12 11 -37 38 -57 60 -55 60 -216 213 -289 274 -36
30 -67 57 -70 60 -30 33 -310 230 -435 305 -205 124 -559 277 -716 309 -13 3
-55 12 -94 20 -38 9 -79 16 -90 16 -28 0 -46 14 -49 36 -3 17 -13 19 -92 21
-49 0 -95 1 -101 2 -9 1 -13 21 -13 66 l0 65 -1467 -1 c-808 -1 -1477 -3
-1488 -6z m2894 -409 l-1 -354 -31 5 c-18 3 -43 8 -57 10 -156 31 -343 49
-525 49 -117 0 -290 -9 -350 -19 -16 -3 -43 -7 -60 -10 -16 -3 -50 -7 -74 -10
-81 -10 -234 -47 -366 -87 -295 -90 -577 -228 -828 -405 -412 -290 -775 -731
-969 -1177 -16 -39 -38 -89 -48 -111 -23 -52 -93 -269 -118 -365 l-19 -75
-307 -1 -306 -1 -1 46 c-3 296 1 1620 6 1661 53 466 320 853 730 1058 84 42
243 99 304 108 20 3 39 8 42 10 3 2 35 6 70 10 35 3 65 7 67 9 2 1 642 3 1422
3 l1419 1 0 -355z m226 87 c0 -84 -3 -155 -7 -157 -4 -3 -33 -5 -65 -6 l-58
-2 -3 154 c-2 103 1 156 8 160 6 4 37 6 68 5 l57 -2 0 -152z m185 80 c329 -67
747 -270 1097 -533 59 -45 110 -84 113 -87 3 -3 34 -31 70 -61 144 -121 331
-309 438 -440 20 -25 40 -47 43 -50 7 -5 155 -202 205 -272 103 -145 285 -472
349 -628 14 -36 35 -84 46 -107 21 -47 125 -354 133 -393 3 -14 14 -59 25
-100 23 -83 48 -198 56 -257 3 -21 10 -60 15 -88 5 -27 12 -72 15 -100 3 -27
8 -68 11 -90 15 -115 28 -555 17 -555 -4 0 -33 17 -64 38 l-58 37 -1 155 c0
85 -2 173 -4 195 -3 22 -7 76 -11 120 -7 84 -9 107 -18 165 -3 19 -9 58 -13
85 -3 28 -8 53 -10 56 -2 4 -6 28 -9 55 -4 26 -8 52 -11 56 -3 5 -8 21 -10 36
-4 23 -12 59 -29 132 -9 41 -67 224 -93 295 -117 322 -271 617 -466 895 -33
47 -62 87 -65 90 -4 3 -25 30 -47 60 -23 30 -51 66 -63 80 -12 14 -47 55 -79
92 -73 85 -296 306 -387 384 -38 32 -72 61 -75 64 -13 14 -205 153 -285 207
-284 190 -653 348 -901 387 -78 13 -81 15 -79 51 3 42 11 54 33 49 9 -2 60
-12 112 -23z m35 -143 c44 -11 87 -21 95 -23 19 -5 162 -58 215 -80 141 -58
336 -165 490 -268 77 -51 239 -170 255 -187 3 -3 32 -28 65 -55 67 -56 71 -59
181 -166 439 -423 761 -933 952 -1504 36 -108 56 -176 68 -227 2 -10 6 -26 8
-35 23 -93 37 -162 50 -238 9 -49 18 -101 21 -115 2 -13 7 -52 11 -86 3 -33 7
-74 10 -90 2 -16 7 -122 10 -236 l5 -207 -65 27 -66 27 -1 80 c-2 216 -26 450
-64 645 -3 14 -10 51 -15 82 -28 152 -115 434 -192 623 -192 467 -478 886
-839 1230 -151 143 -249 224 -399 327 -305 211 -612 351 -884 404 -70 14 -86
21 -87 36 -1 10 -2 24 -3 31 -1 6 1 19 6 28 8 18 7 19 173 -23z m-10 -133
c102 -27 211 -65 285 -98 75 -33 263 -128 302 -153 21 -13 39 -24 42 -24 5 0
199 -131 206 -139 3 -3 21 -17 40 -31 154 -108 390 -330 561 -530 209 -244
416 -582 554 -905 44 -104 138 -370 149 -425 3 -14 12 -50 20 -80 20 -69 53
-231 61 -288 3 -24 7 -53 10 -65 6 -27 12 -75 20 -152 4 -33 8 -76 11 -95 2
-19 7 -102 10 -184 l5 -149 -28 7 c-15 4 -41 9 -58 11 -16 3 -52 8 -80 13 -43
7 -115 7 -249 -1 l-30 -2 4 60 c8 147 0 386 -15 495 -21 146 -24 166 -40 245
-13 63 -25 110 -69 270 -47 170 -170 444 -282 630 -30 49 -60 99 -67 110 -7
11 -15 22 -18 25 -3 3 -20 28 -39 55 -100 149 -322 392 -480 527 -236 201
-529 376 -820 491 -106 41 -257 92 -305 101 -11 2 -32 9 -47 15 l-27 10 2 123
2 123 98 0 c94 0 98 1 104 23 6 27 20 26 168 -13z m-855 -229 c52 -3 106 -8
119 -11 13 -2 47 -7 75 -9 56 -6 276 -49 340 -68 23 -6 46 -12 51 -14 22 -5
201 -65 220 -73 11 -5 61 -26 110 -46 134 -55 315 -152 447 -238 64 -42 123
-84 131 -92 9 -8 19 -15 22 -15 16 0 208 -170 317 -281 162 -163 339 -392 424
-549 10 -19 22 -37 25 -40 11 -9 148 -295 174 -365 90 -237 153 -483 171 -670
3 -33 8 -63 10 -66 7 -11 17 -227 16 -329 -2 -133 -15 -324 -27 -380 -2 -13
-7 -42 -10 -65 -38 -259 -149 -589 -289 -858 -74 -143 -86 -162 -190 -310
-110 -158 -174 -234 -311 -372 -225 -227 -424 -375 -700 -521 -198 -105 -509
-222 -665 -250 -14 -3 -33 -7 -42 -10 -10 -3 -30 -7 -45 -10 -16 -2 -50 -9
-78 -14 -224 -44 -594 -55 -825 -25 -364 48 -669 141 -968 296 -65 33 -126 65
-137 72 -124 76 -317 207 -335 227 -3 3 -30 25 -60 49 -63 51 -323 310 -360
359 -14 18 -38 49 -55 69 -16 20 -37 46 -45 58 -8 13 -38 56 -66 96 -151 217
-273 467 -362 739 -32 96 -80 287 -88 349 -2 18 -6 36 -8 40 -2 3 -7 35 -11
71 -4 36 -9 74 -11 85 -7 39 -17 221 -17 330 -1 224 23 425 79 665 22 95 88
310 103 335 3 6 6 16 7 22 3 19 42 105 113 248 138 281 307 513 540 746 177
176 321 288 576 446 24 15 304 154 356 177 146 64 510 160 684 181 28 4 57 8
65 10 8 2 62 7 120 11 58 3 106 7 107 8 4 3 215 -2 303 -8z m-3714 -1566 c0
-140 -1 -260 -3 -266 -3 -8 -73 -12 -239 -12 l-234 1 0 262 c0 144 2 264 4
266 2 2 109 4 238 4 l233 0 1 -255z m6736 -1583 c141 -26 313 -111 428 -213
102 -91 220 -285 255 -419 61 -236 27 -476 -99 -689 -46 -77 -175 -216 -249
-265 -100 -67 -261 -131 -369 -146 -41 -5 -214 -6 -248 -1 -86 14 -111 20
-172 42 -147 53 -287 151 -379 265 -34 41 -36 46 -22 64 8 11 21 29 28 39 13
18 15 17 42 -15 244 -291 641 -375 981 -208 205 100 379 319 418 524 28 153
24 270 -16 399 -84 271 -315 480 -595 539 -72 15 -303 17 -337 2 -15 -6 -18
-2 -18 21 0 40 9 50 50 62 34 10 246 9 302 -1z m26 -177 c196 -54 361 -189
452 -370 75 -148 90 -359 36 -515 -28 -81 -93 -195 -143 -251 -82 -90 -199
-163 -328 -204 -87 -28 -259 -36 -352 -16 -168 36 -325 136 -430 272 -24 32
-24 33 -6 65 10 17 24 42 31 56 13 24 14 24 51 -37 100 -166 277 -261 490
-261 123 0 191 17 293 74 147 82 250 228 282 397 56 297 -131 587 -428 664
-84 22 -234 16 -306 -12 -30 -12 -58 -22 -61 -22 -4 0 -3 17 2 38 4 20 11 53
14 72 8 47 14 51 87 65 86 16 226 10 316 -15z m-60 -211 c104 -29 191 -88 264
-179 83 -105 119 -283 84 -420 -9 -36 -21 -66 -26 -68 -6 -2 -10 -12 -10 -21
0 -10 -9 -28 -20 -41 -11 -13 -20 -26 -20 -30 0 -4 -19 -27 -42 -52 -101 -104
-210 -151 -353 -152 -123 0 -157 6 -253 50 -98 44 -209 179 -227 274 -2 12 16
62 41 113 25 51 45 93 44 95 0 1 7 19 16 40 8 20 37 102 64 182 l48 144 48 28
c96 53 230 68 342 37z m-5873 -399 c5 -8 10 -17 11 -20 4 -22 102 -223 148
-307 35 -64 136 -224 146 -233 3 -3 28 -36 55 -74 160 -228 468 -522 707 -676
57 -37 59 -40 32 -41 -90 -3 -2531 -4 -2541 -1 -9 3 -12 125 -12 507 l-1 503
168 172 c92 94 168 175 170 178 1 4 251 7 555 7 484 1 553 -1 562 -15z m-2063
-210 c55 -24 59 -28 48 -49 -10 -17 -57 -121 -92 -203 -11 -27 -26 -47 -32
-45 -97 39 -97 39 -90 61 4 11 19 48 35 81 15 33 39 86 53 118 14 31 27 57 29
57 3 0 24 -9 49 -20z m224 -191 c82 -38 192 -91 244 -117 l95 -47 2 -82 c1
-81 1 -82 -21 -74 -12 5 -123 58 -246 118 -124 60 -240 116 -258 124 -17 7
-31 16 -29 19 1 3 13 33 26 68 13 34 27 62 31 62 4 0 75 -32 156 -71z m-224
-322 l37 -15 -51 -124 c-27 -68 -53 -127 -58 -131 -4 -5 -24 -1 -44 8 -30 14
-35 21 -30 39 3 11 10 25 15 31 5 5 9 16 9 25 0 8 6 26 13 40 7 14 24 53 37
87 13 34 27 60 30 58 3 -1 22 -10 42 -18z m86 -117 c17 -10 107 -52 342 -160
63 -29 120 -57 126 -62 12 -9 19 -152 9 -168 -3 -5 -72 24 -153 64 -81 40
-207 102 -280 137 -148 71 -142 61 -102 153 20 48 28 53 58 36z"/>
<path d="M4758 6765 c-2 -1 -34 -6 -73 -10 -166 -16 -397 -64 -505 -106 -14
-5 -34 -11 -45 -13 -83 -16 -411 -170 -560 -262 -276 -172 -556 -434 -751
-704 -207 -287 -375 -668 -439 -1000 -21 -110 -32 -180 -42 -270 -9 -93 -9
-455 0 -530 4 -30 9 -73 12 -95 44 -356 201 -770 413 -1090 36 -55 68 -102 71
-105 3 -3 26 -32 51 -65 94 -125 287 -322 420 -429 312 -250 784 -473 1124
-530 16 -3 52 -10 80 -15 116 -24 265 -35 446 -35 147 0 334 9 348 18 4 2 32
7 63 10 65 8 66 8 179 34 345 81 644 214 935 417 277 193 533 464 721 765 57
91 132 236 181 350 90 210 165 481 188 680 4 30 9 68 11 83 18 115 18 396 0
552 -15 119 -18 141 -22 158 -3 10 -7 30 -9 45 -2 15 -9 50 -15 77 -7 28 -14
59 -16 71 -9 49 -68 233 -100 318 -178 458 -476 853 -876 1159 -48 37 -89 67
-91 67 -3 0 -40 23 -83 52 -102 68 -312 174 -444 226 -95 37 -281 96 -334 106
-12 2 -43 10 -71 16 -69 16 -73 17 -130 24 -27 4 -58 9 -69 12 -10 3 -39 8
-65 10 -56 6 -498 14 -503 9z m487 -70 c22 -2 51 -7 65 -9 14 -2 50 -7 80 -11
30 -4 116 -23 190 -42 169 -43 165 -41 228 -69 18 -8 39 -14 46 -14 20 0 209
-85 326 -146 100 -53 301 -181 346 -220 12 -11 36 -30 54 -44 99 -76 259 -234
368 -365 80 -96 232 -314 232 -333 0 -6 4 -12 8 -14 14 -6 138 -261 176 -360
54 -145 112 -338 121 -403 1 -11 10 -61 19 -110 9 -50 19 -129 23 -175 14
-161 7 -504 -12 -601 -3 -13 -10 -51 -15 -84 -28 -174 -102 -417 -180 -595
-48 -111 -139 -284 -152 -288 -4 -2 -8 -8 -8 -13 0 -18 -153 -236 -220 -313
-114 -132 -262 -278 -350 -345 -19 -14 -41 -32 -48 -39 -29 -27 -202 -143
-282 -189 -215 -124 -494 -236 -690 -278 -8 -2 -49 -11 -90 -20 -41 -9 -94
-18 -116 -21 -23 -3 -53 -7 -65 -9 -135 -27 -531 -24 -699 5 -30 5 -71 12 -90
14 -19 2 -66 12 -105 21 -38 10 -74 18 -80 19 -171 40 -454 154 -635 257 -49
28 -243 155 -273 179 -342 269 -595 580 -771 944 -26 55 -56 120 -65 145 -10
25 -21 55 -26 66 -4 11 -9 25 -11 30 -1 6 -14 46 -29 90 -15 44 -28 87 -30 95
-2 8 -10 42 -19 75 -8 33 -18 75 -21 94 -3 19 -7 37 -9 40 -2 3 -7 33 -11 66
-3 32 -8 62 -10 65 -9 14 -19 198 -19 345 0 145 7 286 18 342 5 24 18 107 22
138 1 11 3 20 4 20 1 0 3 11 6 24 2 13 14 60 25 105 12 45 22 88 24 96 2 8 15
47 28 85 141 407 343 731 637 1023 271 269 623 485 985 607 98 32 236 69 305
81 14 3 32 7 40 9 20 6 137 22 220 31 36 3 67 8 68 9 6 5 423 -4 467 -10z"/>
<path d="M4777 6414 c-1 -1 -33 -4 -72 -7 -38 -4 -95 -11 -125 -17 -30 -6 -68
-13 -85 -16 -141 -23 -339 -90 -501 -170 -120 -58 -335 -192 -376 -232 -9 -10
-31 -28 -49 -42 -110 -82 -319 -319 -425 -480 -27 -41 -51 -77 -54 -80 -10
-10 -41 -67 -104 -190 -95 -186 -183 -431 -217 -604 -6 -28 -12 -60 -14 -71
-10 -50 -16 -108 -22 -200 l-5 -100 606 0 c333 0 606 0 606 0 0 0 3 25 6 55 5
48 36 209 49 250 95 317 336 561 646 654 102 30 129 35 244 42 50 4 92 8 95
11 3 2 5 274 5 604 l0 600 -103 -2 c-56 -2 -103 -4 -105 -5z m168 -114 c1 -97
0 -101 -44 -100 -46 1 -154 -7 -206 -16 -45 -7 -57 -9 -135 -25 -95 -18 -103
-20 -112 -25 -4 -3 -16 -7 -25 -9 -58 -11 -141 -45 -288 -116 -114 -55 -137
-68 -220 -125 -411 -283 -730 -736 -891 -1268 -20 -67 -31 -112 -60 -251 -2
-11 -7 -40 -10 -65 -3 -25 -8 -47 -10 -49 -2 -2 -42 -5 -89 -5 l-86 -1 5 71
c26 388 201 838 467 1201 89 120 97 130 214 248 164 167 321 283 515 382 101
51 193 93 213 97 6 2 21 6 32 10 103 39 269 81 360 92 21 3 42 7 46 9 3 3 46
7 95 11 49 3 90 7 91 8 2 1 33 2 70 2 l67 -1 1 -75z m-4 -147 c5 -38 3 -206
-3 -216 -4 -6 -36 -12 -75 -14 -70 -2 -154 -15 -263 -38 -14 -3 -34 -7 -46 -9
-58 -11 -220 -72 -306 -116 -113 -57 -230 -132 -312 -200 -54 -44 -201 -194
-241 -245 -22 -27 -42 -52 -45 -55 -34 -32 -178 -268 -232 -380 -79 -163 -152
-394 -185 -585 l-8 -49 -95 -1 c-139 -1 -142 0 -135 44 3 20 8 52 11 71 2 19
9 51 14 70 5 19 12 51 15 70 13 77 108 335 169 461 64 133 116 229 127 239 3
3 12 16 19 30 15 29 127 187 150 211 8 9 30 34 47 56 143 178 385 368 608 478
93 45 286 118 344 130 9 2 50 10 91 19 42 8 102 18 135 22 33 3 61 7 62 7 6 6
153 6 154 0z m-3 -272 c4 -1 7 -60 7 -131 0 -150 11 -136 -110 -144 -75 -6
-95 -9 -195 -32 -126 -28 -294 -103 -415 -185 -165 -111 -325 -285 -446 -485
-42 -71 -70 -127 -129 -259 -25 -57 -73 -221 -87 -302 -12 -66 -21 -92 -32
-95 -9 -2 -70 -3 -136 -3 l-120 1 3 45 c3 49 22 130 59 262 30 105 58 177 134
342 101 216 326 504 498 635 18 14 38 30 45 36 63 59 265 171 393 219 114 43
300 86 391 90 23 1 44 4 46 6 4 3 70 3 94 0z m6 -468 c0 -84 -2 -154 -5 -157
-2 -2 -42 -6 -89 -10 -244 -17 -517 -150 -673 -327 -94 -107 -189 -275 -219
-389 -29 -107 -51 -222 -51 -267 0 -7 -4 -13 -9 -14 -43 -5 -292 -2 -301 3 -7
4 -4 36 12 105 12 54 24 106 26 116 18 82 119 311 187 422 66 109 163 230 253
316 69 67 83 78 135 116 95 68 278 165 334 178 6 1 18 5 26 8 8 3 29 9 45 13
17 4 35 8 40 10 48 15 172 30 235 30 l55 -1 -1 -152z"/>
<path d="M5821 6368 c-5 -13 -20 -52 -35 -87 -28 -69 -32 -91 -16 -91 26 0
222 -104 365 -193 102 -64 313 -241 399 -336 17 -18 44 -47 59 -64 147 -158
321 -453 405 -687 29 -78 79 -254 87 -304 2 -12 9 -50 15 -86 7 -36 14 -85 16
-110 7 -75 13 -154 13 -180 l1 -25 105 0 c64 0 105 4 106 10 4 39 -5 174 -17
252 -16 111 -36 222 -45 250 -5 17 -12 43 -15 57 -25 138 -172 483 -265 624
-16 24 -29 45 -29 48 0 9 -109 161 -155 215 -16 20 -43 51 -58 70 -185 221
-474 444 -756 585 -161 80 -169 82 -180 52z"/>
<path d="M5607 5777 c-32 -89 -32 -96 -4 -106 65 -25 181 -88 267 -146 421
-285 689 -736 726 -1221 3 -49 8 -91 11 -94 3 -3 38 -5 80 -5 l75 0 -6 97
c-33 537 -341 1056 -812 1370 -90 59 -279 158 -303 158 -10 0 -23 -19 -34 -53z"/>
<path d="M5453 5350 c-24 -56 -27 -52 67 -100 364 -185 611 -555 646 -970 3
-36 8 -67 10 -69 10 -10 103 -8 107 2 8 24 -5 148 -24 237 -55 253 -177 478
-354 654 -50 50 -104 101 -120 114 -68 56 -219 145 -289 172 -21 7 -25 3 -43
-40z"/>
<path d="M4898 4984 c-2 -1 -25 -5 -51 -8 -131 -16 -303 -105 -411 -212 -86
-85 -106 -112 -156 -212 -234 -467 51 -1026 569 -1117 123 -22 261 -11 380 30
553 188 714 890 299 1296 -83 82 -217 165 -295 184 -10 3 -43 12 -73 20 -47
14 -253 29 -262 19z m197 -68 c295 -47 528 -273 590 -570 56 -272 -51 -549
-280 -723 -60 -46 -173 -98 -256 -118 -82 -20 -223 -26 -284 -12 -22 5 -49 10
-59 13 -115 23 -267 113 -356 210 -220 240 -253 602 -79 875 152 239 443 370
724 325z"/>
<path d="M4978 4605 c-2 -1 -27 -5 -57 -8 -208 -22 -370 -242 -334 -454 12
-68 49 -152 86 -195 183 -210 521 -177 652 64 83 153 63 329 -51 457 -63 69
-131 108 -223 125 -39 8 -71 12 -73 11z m99 -78 c90 -23 184 -113 219 -208 57
-159 -15 -336 -171 -417 -44 -23 -62 -26 -145 -26 -113 0 -160 18 -234 90 -69
67 -99 138 -100 240 0 67 4 89 27 135 46 93 121 159 212 186 38 11 147 11 192
0z"/>
<path d="M6139 4105 c-1 -5 -2 -32 -4 -60 -2 -49 -10 -109 -21 -170 -20 -110
-98 -277 -179 -384 -35 -47 -167 -167 -223 -205 -123 -80 -286 -149 -413 -172
-24 -4 -46 -8 -49 -9 -10 -3 -136 -19 -160 -20 -14 -2 -28 -3 -32 -4 -5 0 -8
-293 -8 -650 l0 -649 24 -4 c26 -5 176 -1 235 6 62 7 174 27 181 31 3 2 18 6
32 9 186 33 489 165 693 302 197 132 394 313 525 484 19 25 37 47 41 50 9 7
152 227 179 275 50 90 160 317 160 331 0 3 6 20 14 37 32 70 121 358 142 453
1 7 9 43 17 80 9 38 18 86 21 108 4 21 8 41 10 45 2 3 7 33 10 66 l7 60 -600
0 c-395 0 -601 -3 -602 -10z m125 -959 c1 -511 -1 -931 -4 -935 -8 -11 -130
-93 -177 -119 l-42 -23 0 750 0 750 39 83 c54 116 89 250 95 368 2 25 3 47 4
50 0 3 20 5 43 4 l42 -1 0 -927z m1019 925 c10 -1 16 -4 13 -9 -2 -4 -7 -28
-11 -52 -4 -25 -8 -49 -9 -55 -2 -5 -6 -31 -11 -57 -6 -40 -11 -48 -29 -49
-229 -6 -926 -2 -927 6 -1 6 -2 56 -3 112 -2 83 1 103 13 105 13 3 917 2 964
-1z m-43 -282 c0 -10 -4 -29 -10 -44 -5 -14 -12 -36 -14 -49 -2 -13 -12 -50
-21 -83 l-17 -60 -434 0 c-239 0 -435 2 -435 6 -4 16 -5 227 -2 236 2 7 158
11 468 11 434 0 465 -1 465 -17z m-80 -288 c0 -14 -49 -148 -75 -206 l-23 -50
-378 0 -379 0 0 133 -1 132 428 0 c261 0 428 -4 428 -9z m-1162 -730 l-1 -729
-86 -40 c-47 -21 -95 -42 -107 -46 l-21 -6 0 670 c0 368 3 670 7 670 11 0 142
130 174 173 16 20 30 37 31 37 2 0 3 -328 3 -729z m-258 -181 l0 -660 -22 -9
c-13 -5 -56 -18 -95 -29 l-73 -20 0 638 0 639 93 49 c50 28 93 51 95 51 1 1 2
-296 2 -659z m1293 611 c14 -1 9 -17 -34 -103 -28 -57 -60 -115 -70 -129 l-18
-26 -283 0 c-156 -1 -292 1 -304 4 -19 4 -20 11 -20 126 1 67 4 124 8 127 5 4
663 5 721 1z m-1526 -705 l0 -635 -51 -11 c-28 -7 -74 -14 -102 -17 l-52 -5 2
622 1 622 70 20 c39 10 78 21 89 23 10 2 21 7 24 10 3 3 8 5 12 5 4 0 7 -286
7 -634z m-247 -56 l0 -620 -32 -1 c-18 -1 -55 -2 -83 -3 l-50 -1 0 614 0 614
45 4 c25 3 46 5 47 7 1 1 18 3 38 4 l35 3 0 -621z m1618 457 c12 -2 -106 -189
-144 -227 -12 -12 -51 -15 -222 -15 l-208 0 1 119 c0 103 2 120 17 125 16 6
527 4 556 -2z m-195 -286 c8 -1 -24 -39 -118 -138 l-60 -64 -97 -2 c-54 -2
-99 0 -99 3 -1 3 -2 49 -3 102 -2 91 -1 97 18 100 19 3 341 2 359 -1z m-233
-253 c0 -4 -3 -8 -7 -8 -5 0 -21 -13 -38 -28 -16 -15 -46 -40 -66 -55 l-36
-27 2 57 c2 32 3 60 4 63 2 9 141 7 141 -2z"/>
<path d="M2760 4061 c-179 -55 -276 -241 -217 -416 23 -67 36 -80 888 -915
210 -206 493 -485 628 -619 135 -134 262 -254 282 -267 50 -34 149 -53 213
-41 143 25 251 142 263 283 6 72 -8 140 -43 195 -20 31 -146 252 -212 369 -14
25 -117 207 -230 405 -113 198 -216 380 -230 405 -34 60 -55 98 -80 140 -11
19 -66 116 -122 215 -56 99 -114 191 -128 203 -59 52 -62 52 -541 51 -245 0
-457 -4 -471 -8z m185 -52 c105 -39 181 -153 177 -264 -7 -151 -123 -266 -271
-268 -207 -2 -342 203 -257 388 62 136 210 197 351 144z m525 -21 c-39 -57
-50 -111 -35 -170 40 -160 240 -214 348 -95 25 28 49 68 51 89 3 23 19 3 79
-102 37 -65 67 -121 67 -125 0 -3 5 -11 11 -18 10 -12 77 -129 226 -394 14
-27 37 -65 50 -86 13 -21 28 -48 34 -60 5 -12 15 -31 22 -42 7 -11 36 -63 66
-115 30 -52 62 -108 71 -125 128 -223 190 -334 190 -338 0 -3 -17 1 -37 10
-23 9 -69 16 -113 16 -63 1 -84 -3 -133 -27 -111 -55 -179 -162 -181 -283 l-1
-72 -29 27 c-49 46 -217 211 -637 624 -222 218 -482 472 -577 565 l-173 169
58 -1 c66 -2 144 18 188 47 69 47 129 133 141 206 3 15 7 37 9 49 6 35 -22
137 -51 185 -14 23 -41 54 -60 68 -18 14 -34 28 -34 33 0 4 108 7 240 7 l240
0 -30 -42z m241 19 c142 -75 100 -289 -60 -305 -61 -6 -111 16 -147 64 -25 32
-29 47 -29 98 0 72 25 115 83 146 50 26 100 25 153 -3z m912 -1642 c102 -51
151 -131 152 -245 0 -116 -52 -202 -150 -250 -177 -86 -385 33 -399 228 -6 88
43 195 111 242 89 61 195 70 286 25z"/>
<path d="M3722 3314 c-221 -65 -290 -346 -120 -499 144 -130 369 -88 459 87
33 62 33 184 1 251 -61 127 -211 198 -340 161z m197 -65 c214 -123 145 -444
-100 -466 -82 -8 -144 15 -205 77 -75 76 -89 206 -32 298 70 115 223 156 337
91z"/>
</g>
</svg>
