<svg xmlns="http://www.w3.org/2000/svg" width="256" height="256" preserveAspectRatio="xMidYMid" xmlns:v="https://vecta.io/nano"><path d="M128 0C57.328 0 0 57.328 0 128s57.328 128 128 128 128-57.328 128-128S198.672 0 128 0" fill="#368fb9"/><path d="M203.317 174.06c-7.907 1.878-11.91 3.608-21.696 9.983-15.271 9.884-31.975 14.48-31.975 14.48s-1.384 2.076-5.387 3.015c-6.919 1.68-32.964 3.114-35.336 3.163-6.375.049-10.28-1.631-11.367-4.25-3.311-7.907 4.744-11.367 4.744-11.367s-1.779-1.087-2.817-2.076c-.939-.939-1.927-2.817-2.224-2.125-1.236 3.015-1.878 10.378-5.189 13.69-4.547 4.596-13.146 3.064-18.236.395-5.585-2.965.395-9.934.395-9.934s-3.015 1.779-5.436-1.878c-2.175-3.361-4.201-9.093-3.657-16.161.593-8.056 9.588-15.864 9.588-15.864s-1.581-11.91 3.608-24.117c4.695-11.12 17.347-20.065 17.347-20.065s-10.625-11.762-6.672-22.338c2.57-6.919 3.608-6.869 4.448-7.166 2.965-1.137 5.832-2.372 7.957-4.695 10.625-11.466 24.167-9.291 24.167-9.291s6.425-19.521 12.355-15.716c1.829 1.186 8.402 15.815 8.402 15.815s7.018-4.102 7.808-2.57c4.25 8.253 4.744 24.019 2.866 33.606-3.163 15.815-11.07 24.315-14.233 29.653-.741 1.236 8.5 5.14 14.332 21.3 5.387 14.777.593 27.181 1.433 28.565.148.247.198.346.198.346s6.178.494 18.582-7.166c6.622-4.102 14.48-8.698 23.425-8.797 8.649-.148 9.093 9.983 2.57 11.564h0zm11.762-7.265c-.89-7.018-6.82-11.861-14.431-11.762-11.367.148-20.905 6.029-27.231 9.934-2.471 1.532-4.596 2.669-6.425 3.509.395-5.733.049-13.245-2.916-21.498-3.608-9.884-8.451-15.963-11.91-19.472 4.003-5.832 9.489-14.332 12.059-27.478 2.224-11.219 1.532-28.664-3.558-38.449-1.038-1.977-2.768-3.41-4.942-4.003-.89-.247-2.57-.741-5.881.198-4.992-10.329-6.721-11.416-8.056-12.306-2.768-1.779-6.029-2.175-9.093-1.038-4.102 1.483-7.611 5.436-10.922 12.454a51.47 51.47 0 0 0-1.334 3.015c-6.276.445-16.161 2.718-24.513 11.762-1.038 1.137-3.064 1.977-5.189 2.768h.049c-4.349 1.532-6.326 5.09-8.747 11.515-3.361 8.995.099 17.841 3.509 23.574-4.646 4.151-10.823 10.774-14.085 18.533-4.053 9.588-4.497 18.978-4.349 24.068-3.459 3.657-8.797 10.527-9.39 18.236-.791 10.774 3.114 18.088 4.843 20.757.494.791 1.038 1.433 1.631 2.076-.198 1.334-.247 2.768.049 4.25.642 3.459 2.817 6.276 6.128 8.056 6.524 3.459 15.617 4.942 22.635 1.433 2.52 2.669 7.117 5.239 15.469 5.239h.494c2.125 0 29.109-1.433 36.967-3.361 3.509-.84 5.931-2.323 7.512-3.657 5.041-1.581 18.978-6.326 32.124-14.826 9.291-6.029 12.503-7.314 19.422-8.995 6.721-1.631 10.922-7.759 10.082-14.53h0z" fill="#fff"/></svg>